HIERARCHY
ROOT Hips
{
	OFFSET 0.00000 0.00000 0.00000
	CHANNELS 6 Xposition Yposition Zposition Zrotation Yrotation Xrotation 
	JOINT LHipJoint
	{
		OFFSET 0 0 0
		CHANNELS 3 Zrotation Yrotation Xrotation
		JOINT LeftUpLeg
		{
			OFFSET 1.34019 -1.87553 0.90315
			CHANNELS 3 Zrotation Yrotation Xrotation
			JOINT LeftLeg
			{
				OFFSET 2.55316 -7.01474 0.00000
				CHANNELS 3 Zrotation Yrotation Xrotation
				JOINT LeftFoot
				{
					OFFSET 2.64657 -7.27139 0.00000
					CHANNELS 3 Zrotation Yrotation Xrotation
					JOINT LeftToeBase
					{
						OFFSET 0.24207 -0.66507 2.14489
						CHANNELS 3 Zrotation Yrotation Xrotation
						End Site
						{
							OFFSET 0.00000 -0.00000 1.12451
						}
					}
				}
			}
		}
	}
	JOINT RHipJoint
	{
		OFFSET 0 0 0
		CHANNELS 3 Zrotation Yrotation Xrotation
		JOINT RightUpLeg
		{
			OFFSET -1.28320 -1.87553 0.90315
			CHANNELS 3 Zrotation Yrotation Xrotation
			JOINT RightLeg
			{
				OFFSET -2.60484 -7.15674 0.00000
				CHANNELS 3 Zrotation Yrotation Xrotation
				JOINT RightFoot
				{
					OFFSET -2.60296 -7.15159 0.00000
					CHANNELS 3 Zrotation Yrotation Xrotation
					JOINT RightToeBase
					{
						OFFSET -0.31082 -0.85398 2.28998
						CHANNELS 3 Zrotation Yrotation Xrotation
						End Site
						{
							OFFSET -0.00000 -0.00000 1.21611
						}
					}
				}
			}
		}
	}
	JOINT LowerBack
	{
		OFFSET 0 0 0
		CHANNELS 3 Zrotation Yrotation Xrotation
		JOINT Spine
		{
			OFFSET -0.00160 2.05581 -0.15156
			CHANNELS 3 Zrotation Yrotation Xrotation
			JOINT Spine1
			{
				OFFSET 0.04594 2.06326 -0.01617
				CHANNELS 3 Zrotation Yrotation Xrotation
				JOINT Neck
				{
					OFFSET 0 0 0
					CHANNELS 3 Zrotation Yrotation Xrotation
					JOINT Neck1
					{
						OFFSET 0.03753 1.73883 0.26751
						CHANNELS 3 Zrotation Yrotation Xrotation
						JOINT Head
						{
							OFFSET -0.09795 1.76129 -0.31794
							CHANNELS 3 Zrotation Yrotation Xrotation
							End Site
							{
								OFFSET -0.03611 1.79987 -0.13846
							}
						}
					}
				}
				JOINT LeftShoulder
				{
					OFFSET 0 0 0
					CHANNELS 3 Zrotation Yrotation Xrotation
					JOINT LeftArm
					{
						OFFSET 3.30667 1.29205 -0.22445
						CHANNELS 3 Zrotation Yrotation Xrotation
						JOINT LeftForeArm
						{
							OFFSET 4.92785 -0.00000 -0.00000
							CHANNELS 3 Zrotation Yrotation Xrotation
							JOINT LeftHand
							{
								OFFSET 3.44052 -0.00000 0.00000
								CHANNELS 3 Zrotation Yrotation Xrotation
								JOINT LeftFingerBase
								{
									OFFSET 0 0 0
									CHANNELS 3 Zrotation Yrotation Xrotation
									JOINT LeftHandIndex1
									{
										OFFSET 0.65433 -0.00000 0.00000
										CHANNELS 3 Zrotation Yrotation Xrotation
										End Site
										{
											OFFSET 0.52753 -0.00000 0.00000
										}
									}
								}
								JOINT LThumb
								{
									OFFSET 0 0 0
									CHANNELS 3 Zrotation Yrotation Xrotation
									End Site
									{
										OFFSET 0.53559 -0.00000 0.53559
									}
								}
							}
						}
					}
				}
				JOINT RightShoulder
				{
					OFFSET 0 0 0
					CHANNELS 3 Zrotation Yrotation Xrotation
					JOINT RightArm
					{
						OFFSET -3.20032 1.49783 -0.27688
						CHANNELS 3 Zrotation Yrotation Xrotation
						JOINT RightForeArm
						{
							OFFSET -5.09181 -0.00000 -0.00000
							CHANNELS 3 Zrotation Yrotation Xrotation
							JOINT RightHand
							{
								OFFSET -3.49865 -0.00000 -0.00000
								CHANNELS 3 Zrotation Yrotation Xrotation
								JOINT RightFingerBase
								{
									OFFSET 0 0 0
									CHANNELS 3 Zrotation Yrotation Xrotation
									JOINT RightHandIndex1
									{
										OFFSET -0.66641 -0.00000 0.00000
										CHANNELS 3 Zrotation Yrotation Xrotation
										End Site
										{
											OFFSET -0.53728 -0.00000 0.00000
										}
									}
								}
								JOINT RThumb
								{
									OFFSET 0 0 0
									CHANNELS 3 Zrotation Yrotation Xrotation
									End Site
									{
										OFFSET -0.54548 -0.00000 0.54548
									}
								}
							}
						}
					}
				}
			}
		}
	}
}
MOTION
Frames: 7
Frame Time: .0083333
-0.1135 18.0003 -31.6472 0 0 0 0 0 0 -21 0 0 0 0 0 0 0 0 0 0 0 0 0 0 21 0 0 0 0 0 0 0 0 0 0 0 0 0 0 0 0 0 0 0 0 0 0 -16 0 0 21 0 0 11 0 0 0 -8 0 0 0 0 0 0 0 0 0 0 0 0 0 0 0 0 0 0 0 0 8 0 0 0 0 0 0 0 0 0 0 0 0 0 0 0 0 0
-0.1135 18.0003 -31.6472 -2.0367 3.7327 1.9943 0.0000 0.0000 0.0000 -18.4459 -5.2178 -6.3345 1.7125 8.2397 23.4444 0.0829 9.8639 -15.3431 0.1674 -2.6355 -7.2656 0.0000 0.0000 0.0000 22.6150 0.8712 -8.7645 -2.1919 -9.2549 26.5961 0.1312 -14.8645 -19.6406 -0.0153 0.7991 -2.1962 -1.0931 -0.7025 2.4033 3.2894 -0.8728 -2.2809 4.0642 -0.3594 -3.6331 5.2552 1.7840 -20.2779 -6.9923 2.8534 25.8927 -3.0650 0.8798 12.0703 -0.0000 0.0000 0.0000 -86.5247 11.7393 18.2144 18.2321 -28.4534 -4.6593 -0.0000 0.0000 -5.3631 10.9438 1.8186 0.3516 -7.1250 0.0000 -0.0000 -12.4834 31.6709 4.1569 -0.0000 0.0000 0.0000 80.9702 -8.2601 9.5199 -15.0752 24.2508 -3.2568 0.0000 -0.0000 -3.8577 -15.5867 -3.3785 0.9418 7.1250 -0.0000 -0.0000 8.9839 -33.3883 2.5844
-0.1165 18.0022 -31.6533 -2.1563 3.7350 1.9935 0.0000 0.0000 0.0000 -18.2973 -5.2238 -6.4183 1.7269 8.2723 23.5443 0.0861 9.8466 -15.3665 0.1720 -2.6713 -7.3650 0.0000 0.0000 0.0000 22.7786 0.9864 -8.7325 -2.1840 -9.2393 26.5467 0.1520 -14.9943 -19.5939 -0.0156 0.8058 -2.2147 -0.9727 -0.7485 2.5728 3.3230 -0.9253 -2.3556 4.0389 -0.3850 -3.8037 5.1864 1.8318 -20.2745 -6.9181 2.9317 26.0419 -3.0162 0.9173 12.1319 -0.0000 0.0000 0.0000 -86.5597 11.8931 18.0402 18.2622 -28.4916 -4.6736 -0.0000 0.0000 -5.2380 10.9312 1.8648 0.3601 -7.1250 0.0000 -0.0000 -12.4999 31.7165 4.1486 -0.0000 0.0000 0.0000 80.9506 -8.3282 9.6458 -15.0697 24.2431 -3.2545 0.0000 -0.0000 -3.8482 -15.5932 -3.4009 0.9485 7.1250 -0.0000 -0.0000 8.9814 -33.4114 2.5785
-0.1154 18.0006 -31.6553 -2.1841 3.6814 2.0048 0.0000 0.0000 0.0000 -18.2665 -5.2448 -6.4478 1.7291 8.2774 23.5600 0.0830 9.8928 -15.3815 0.1641 -2.6098 -7.1941 0.0000 0.0000 0.0000 22.8043 1.0253 -8.7422 -2.1820 -9.2353 26.5341 0.1538 -14.9932 -19.5710 -0.0159 0.8143 -2.2379 -0.8956 -0.7720 2.6657 3.3228 -0.9514 -2.4085 3.9995 -0.3980 -3.9105 5.2000 1.8774 -20.2636 -6.9420 3.0024 26.0783 -3.0172 0.9471 12.1501 -0.0000 0.0000 0.0000 -86.5924 12.0244 17.8876 18.3027 -28.5430 -4.6930 -0.0000 0.0000 -5.1421 10.8695 1.8952 0.3638 -7.1250 0.0000 -0.0000 -12.5527 31.7450 4.1581 -0.0000 0.0000 0.0000 80.9183 -8.4201 9.9048 -15.1271 24.3229 -3.2781 0.0000 -0.0000 -4.0893 -15.6263 -3.5531 0.9931 7.1250 -0.0000 -0.0000 8.9729 -33.5685 2.5415
-0.1139 18.0021 -31.6567 -2.1580 3.6719 2.0044 0.0000 0.0000 0.0000 -18.3113 -5.2557 -6.4524 1.7334 8.2872 23.5897 0.0819 9.9179 -15.3977 0.1655 -2.6208 -7.2248 0.0000 0.0000 0.0000 22.7626 0.9999 -8.7403 -2.1777 -9.2269 26.5077 0.1517 -14.9509 -19.5311 -0.0158 0.8104 -2.2273 -0.9362 -0.7441 2.6581 3.3143 -0.9167 -2.3923 4.0111 -0.3801 -3.8915 5.2003 1.8528 -20.2135 -6.9281 2.9617 26.0206 -3.0167 0.9318 12.1139 0.0000 -0.0000 0.0000 -86.5699 12.0008 17.9608 18.2974 -28.5363 -4.6904 -0.0000 0.0000 -5.2564 10.8765 1.8912 0.3633 -7.1250 0.0000 -0.0000 -12.5466 31.7412 4.1571 0.0000 -0.0000 0.0000 80.9275 -8.4371 9.7817 -15.1094 24.2983 -3.2708 0.0000 -0.0000 -4.0167 -15.6193 -3.3104 0.9249 7.1250 -0.0000 -0.0000 8.9494 -33.3196 2.5893
-0.1133 18.0028 -31.6586 -2.1786 3.6589 2.0036 0.0000 0.0000 0.0000 -18.2966 -5.2812 -6.4485 1.7336 8.2876 23.5910 0.0784 9.9590 -15.3995 0.1652 -2.6187 -7.2189 0.0000 0.0000 0.0000 22.7832 1.0131 -8.7369 -2.1753 -9.2220 26.4923 0.1538 -14.9530 -19.5087 -0.0158 0.8123 -2.2324 -0.9113 -0.7459 2.7001 3.3185 -0.9170 -2.4068 4.0026 -0.3802 -3.9306 5.2002 1.8610 -20.1613 -6.9248 2.9739 26.0044 -3.0127 0.9387 12.0979 -0.0000 0.0000 0.0000 -86.5726 12.0427 17.9344 18.3034 -28.5439 -4.6933 -0.0000 0.0000 -5.2964 10.8652 1.8941 0.3635 -7.1250 0.0000 -0.0000 -12.5560 31.7437 4.1596 -0.0000 0.0000 0.0000 80.9177 -8.4773 9.7760 -15.0997 24.2849 -3.2669 0.0000 -0.0000 -4.0005 -15.6063 -3.1119 0.8687 7.1250 -0.0000 -0.0000 8.9364 -33.1156 2.6300
-0.1125 18.0034 -31.6599 -2.1947 3.6511 2.0002 0.0000 0.0000 0.0000 -18.2891 -5.3125 -6.4396 1.7348 8.2903 23.5993 0.0752 10.0028 -15.4096 0.1653 -2.6195 -7.2213 0.0000 0.0000 0.0000 22.7968 1.0076 -8.7258 -2.1706 -9.2127 26.4629 0.1558 -14.9492 -19.4795 -0.0160 0.8158 -2.2422 -0.8888 -0.7466 2.7274 3.3198 -0.9166 -2.4108 3.9919 -0.3803 -3.9506 5.1856 1.8656 -20.1038 -6.9017 2.9789 25.9651 -2.9993 0.9436 12.0707 0.0000 0.0000 0.0000 -86.5688 12.0641 17.9224 18.3023 -28.5425 -4.6928 -0.0000 0.0000 -5.3560 10.8608 1.8995 0.3644 -7.1250 0.0000 -0.0000 -12.5602 31.7490 4.1594 0.0000 0.0000 0.0000 80.9121 -8.5027 9.7411 -15.0826 24.2611 -3.2598 0.0000 -0.0000 -3.9618 -15.5787 -2.8665 0.7988 7.1250 -0.0000 -0.0000 8.9300 -32.8632 2.6832
